# xmcd CD database file
#
# Track frame offsets:
#	150
#	6717
#	10000
#	12602
#	30402
#	37805
#	45845
#	66377
#	102645
#	105697
#	115747
#	151312
#	157252
#	169535
#	196117
#	199775
#	221912
#	240652
#	257392
#	271490
#
# Disc length: 3813 seconds
#
# Revision: 0
# Processed by: cddbd v1.5.1PL0 Copyright (c) Steve Scherf et al.
# Submitted via: CDex 1.51
#
DISCID=0c0ee314
DTITLE=Gary Burton - A Genuine Tong Funeral
DYEAR=1967
DGENRE=Jazz
TTITLE0=The Opening
TTITLE1=Interlude: Shovels
TTITLE2=The Survivors
TTITLE3=Grave Train
TTITLE4=Death Rolls--Ancestors
TTITLE5=Morning--Part One
TTITLE6=Interlude: Lament
TTITLE7=Silent Spring
TTITLE8=Fanfare
TTITLE9=Mother of the Dead Man
TTITLE10=Some Dirge--Hour of the Wolf
TTITLE11=Morning--Part Two
TTITLE12=The New Funeral March
TTITLE13=The New National Anthem--Son of Jazz
TTITLE14=The Survivors
TTITLE15=June the 15, 1967
TTITLE16=Feelings and Things
TTITLE17=Fleurette Africaine
TTITLE18=I'm Your Pal
TTITLE19=Lines
EXTD=YEAR: 1967
EXTT0=
EXTT1=
EXTT2=
EXTT3=
EXTT4=
EXTT5=
EXTT6=
EXTT7=
EXTT8=
EXTT9=
EXTT10=
EXTT11=
EXTT12=
EXTT13=
EXTT14=
EXTT15=
EXTT16=
EXTT17=
EXTT18=
EXTT19=
PLAYORDER=
